<?xml version="1.0" encoding="UTF-8"?>
<svg id="Layer_1" xmlns="http://www.w3.org/2000/svg" version="1.1" viewBox="0 0 48 30">
  <!-- Generator: Adobe Illustrator 29.4.0, SVG Export Plug-In . SVG Version: 2.1.0 Build 152)  -->
  <defs>
    <style>
      .st0 {
        fill: #99c515;
      }

      .st1 {
        fill: #323542;
      }
    </style>
  </defs>
  <path class="st1" d="M4.89,19.65c-1.31,0-2.46.81-2.46,2.15v1.75c0,1.34,1.17,2.19,2.43,2.19.53,0,1.35-.02,2.18-.58.09-.07.02-.24-.07-.43s-.2-.35-.29-.29c-.64.36-1.07.54-1.82.54s-1.34-.55-1.34-1.32v-.56h3.77v-1.32c0-1.59-1.11-2.13-2.39-2.13ZM6.23,22.33h-2.74v-.61c0-.75.56-1.31,1.41-1.31.74,0,1.33.6,1.33,1.33,0,0,0,0,0,.01v.57ZM43.37,19.65c-.65.01-1.3.15-1.89.42-.1.04-.03.19.07.45.1.24.19.36.28.32.35-.15.93-.42,1.48-.42.19,0,1.22-.02,1.22,1.37h-.8c-.95.02-2.84.12-2.84,1.7v.54c0,1.04.79,1.72,1.97,1.72.61,0,1.23-.3,1.68-.82v.63c0,.11.29.11.51.11s.51,0,.51-.11v-3.74c0-1.65-1-2.16-2.2-2.16ZM44.55,24.1c-.28.29-.81.74-1.4.85-.75.14-1.23-.33-1.23-.88v-.49c0-.67.57-.88,1.25-.95.46-.04.92-.05,1.38-.04v1.5ZM31.21,19.65c-.65.01-1.3.15-1.89.42-.1.04-.03.19.08.45.1.24.19.36.28.32.35-.15.93-.42,1.48-.42.19,0,1.22-.02,1.22,1.37h-.8c-.95.02-2.84.12-2.84,1.7v.54c0,1.04.79,1.72,1.97,1.72.62,0,1.23-.3,1.68-.82v.63c0,.11.29.11.51.11s.51,0,.51-.11v-3.74c0-1.65-.99-2.16-2.2-2.16ZM32.38,24.1c-.28.29-.81.74-1.4.85-.75.14-1.23-.33-1.23-.88v-.49c0-.67.57-.88,1.25-.95.46-.04.92-.05,1.38-.04v1.5ZM35.65,19.86v5.69c0,.11-.3.11-.52.11s-.52,0-.52-.11v-5.69c0-.11.31-.11.53-.11s.51,0,.51.11ZM40.32,24.34c-.22.95-1.07,1.4-2.1,1.4s-1.86-.51-1.96-.59c-.09-.07.02-.26.11-.43s.2-.37.29-.31c.46.26.95.57,1.53.57.52,0,.94-.12,1.1-.65s-.13-.93-.58-1.11l-1.34-.53c-.68-.27-1.09-.89-1-1.61.16-1.13,1.05-1.43,1.89-1.43.77,0,1.47.27,1.69.35.11.04.04.27-.02.45s-.17.4-.27.36c-.18-.08-.77-.4-1.33-.4-.32,0-.8.03-.95.47-.11.31-.01.68.46.86l1.43.56c.83.32,1.3,1.05,1.07,2.03h0ZM22.89,19.86l-3.01,7.93c-.04.11-.24.11-.51.11s-.52,0-.48-.11l.79-2.22-2.11-5.71c-.04-.11.28-.11.55-.11s.51,0,.55.11l1.53,4.32c.02.07.04.14.04.21,0-.07.02-.14.04-.21l1.51-4.32c.04-.11.32-.11.54-.11s.59,0,.54.11ZM25.93,19.65c-.47.02-1.11.12-1.58.82v-.61c0-.11-.3-.11-.52-.11s-.52,0-.52.11v7.93c0,.11.3.11.52.11s.52,0,.52-.11v-2.66c.36.35.83.61,1.42.61,1.55,0,2.36-.9,2.36-2.37v-1.38c0-1.47-.69-2.42-2.19-2.34h0ZM27.05,23.43c0,1.03-.51,1.54-1.28,1.54s-1.42-.45-1.42-1.58v-1.54c0-.57.66-1.45,1.46-1.45.62,0,1.23.28,1.23,1.36v1.65ZM35.67,17.79v.82c0,.11-.31.16-.53.16s-.54-.05-.54-.16v-.82c0-.11.34-.14.55-.14s.52.03.52.14h0ZM17.34,24.34c-.21.95-1.07,1.4-2.1,1.4s-1.86-.51-1.96-.59c-.09-.07.02-.26.11-.43s.19-.37.29-.31c.45.26.95.57,1.53.57.52,0,.94-.12,1.11-.65s-.13-.93-.58-1.11l-1.34-.53c-.68-.27-1.09-.89-1-1.61.15-1.13,1.05-1.43,1.88-1.43.77,0,1.47.27,1.69.35.11.04.04.27-.02.45s-.17.4-.27.36c-.18-.08-.77-.4-1.33-.4-.32,0-.8.03-.95.47-.11.31-.01.68.45.86l1.43.56c.83.32,1.3,1.05,1.07,2.03ZM10.32,19.65c-.65.01-1.3.15-1.89.42-.1.04-.03.19.08.45.1.24.18.36.28.31.35-.15.93-.42,1.48-.42.19,0,1.22-.02,1.22,1.37h-.8c-.95.02-2.83.12-2.83,1.7v.54c0,1.04.79,1.72,1.97,1.72.62,0,1.23-.3,1.68-.82v.63c0,.11.29.11.51.11s.51,0,.51-.11v-3.74c0-1.65-.99-2.16-2.19-2.16ZM11.49,24.1c-.28.29-.81.74-1.39.85-.75.14-1.23-.33-1.23-.88v-.49c0-.67.57-.88,1.26-.95.46-.04.91-.05,1.37-.04v1.5Z"/>
  <path class="st0" d="M45.61,9.17c-5,5.56-8.66,1.36-12.6,2.33,2.63-2.22,6.85-3.66,12.6-2.33ZM36.38,7.02c-10.28-1.39-9.75,5.82-14.43,8.19,4.76.33,10.31-1.83,14.43-8.19h0ZM21.71,15.25c-.82.62-1.83,1.1-3.04,1.46-1.1.32-2.26.44-3.4.35-1.38-.09-2.7-.57-3.82-1.39-1.14-.8-2.03-1.91-2.54-3.21-2.28-.32-4.93-1.74-6.52-3.17,1.97.73,4.3,1.16,6.02,1.01-.24-1.21.14-3.54,1.29-5.14,1.22-1.7,2.83-2.9,4.92-3.04,3.3-.22,4.81,1.49,5.26,2.65,1.59,4.03-2.27,7.96-6.88,7.93.45.78,1.28,1.65,2.85,2.25,1.47.56,3.78.65,5.86.3ZM12.01,10.24s3.4-.24,4.49-2.62c.68-1.49-.29-2.47-1.45-2.34-1.45.15-3.92,1.49-3.04,4.96Z"/>
</svg>