<?xml version="1.0" encoding="UTF-8"?>
<svg id="Layer_1" xmlns="http://www.w3.org/2000/svg" version="1.1" viewBox="0 0 48 30">
  <!-- Generator: Adobe Illustrator 29.8.2, SVG Export Plug-In . SVG Version: 2.1.1 Build 3)  -->
  <defs>
    <style>
      .st0 {
        fill: #fec50a;
      }

      .st1 {
        fill: #323542;
      }

      .st2 {
        fill: #ed2327;
      }
    </style>
  </defs>
  <path class="st0" d="M23.27,4.6c.43.24.79.7,1.09,1.09,2.26,2.94,2.29,6.96.08,9.94-.3.4-.65.87-1.07,1.11-1.58,1.5-4.72,2.34-6.86,2.13-.65-.06-1.82-.31-2.37-.63-1.25-.73.81-1.48,1.33-1.73,1.49-.72,3.29-2.28,3.41-4.05.15-2.28-.12-4.72,0-7.01-.02-.65-.09-1.39-.03-2.04.02-.31.12-.54.38-.72.37-.26.74-.11,1.12.03,1.02.39,2.12,1.13,2.93,1.87Z"/>
  <path class="st2" d="M23.37,16.75c3.56-3.37,3.52-8.84-.1-12.15.91-.65,1.88-1.33,2.96-1.64,1.62-.47,3.93-.54,5.51.05.38.15,1.91.96,2.08,1.28.04.07.06.13.02.21-.36.22-.77.33-1.15.53-3.8,2.04-4.88,6.74-1.89,10.03.78.86,1.88,1.33,2.91,1.84.25.3-.09.57-.33.74-1.45.98-3.96,1.39-5.67,1.17s-3.14-.98-4.35-2.06Z"/>
  <path class="st1" d="M28.13,22.52c-.46-1.04-2.04-1.22-2.95-.71-1.52.86-1.41,3.45.25,4.1.85.33,1.91.19,2.53-.52.07-.08.13-.27.23-.27l1.15.63c-.96,1.83-3.59,2.18-5.2.98-1.41-1.05-1.8-3.08-1.03-4.63.99-2,3.71-2.54,5.45-1.18.15.12.75.71.77.87.01.07-.14.14-.19.17-.1.07-.97.59-1.02.55Z"/>
  <path class="st1" d="M12.43,22.31v.55c-1.29-1.35-3.41-.61-3.91,1.09-.73,2.46,1.9,4.66,3.91,2.81v.55h1.3v-4.99h-1.3ZM10.73,26.16c-1.34-.18-1.47-2.6.18-2.74,2.03-.2,2.09,3.06-.18,2.74Z"/>
  <path class="st1" d="M33.71,22.31v.49c-2.29-1.98-5.05.95-3.65,3.39.74,1.33,2.58,1.72,3.65.56.03.1-.05.51.07.55.26.08.94-.07,1.24,0v-4.99h-1.3ZM32.06,26.17c-1.39-.18-1.48-2.59.13-2.77,2.02-.21,2.13,3.06-.13,2.77Z"/>
  <path class="st1" d="M41.23,20.33v2.48l.23-.25c1.23-.95,3.13-.12,3.13,1.49v3.19s-.06.06-.06.06h-1.24v-3.05s-.05-.24-.06-.27c-.24-.74-1.38-.8-1.8-.21-.05.07-.19.37-.19.44v3.03s-.06.06-.06.06h-1.24v-6.98h1.3Z"/>
  <path class="st1" d="M39.38,23.27l-1.03.54c-.06,0-.26-.3-.38-.37-.39-.24-1.23-.09-1,.41.13.28,1.34.51,1.69.67.58.26.89.78.85,1.42-.09,1.61-2.49,1.87-3.53,1.05-.13-.1-.59-.59-.54-.75.03-.09.88-.48,1-.6.13-.04.21.27.34.38.41.37,1.63.32,1.36-.31-.12-.29-1.41-.54-1.76-.72-1.02-.52-1.04-1.92-.08-2.51.84-.52,2.15-.39,2.82.35.06.06.3.37.25.44Z"/>
  <path class="st1" d="M8.15,20.33v5.15c0,.08-.11.46-.15.57-.58,1.61-3.12,1.83-4.22.65-.08-.08-.42-.52-.36-.61.09-.14.97-.49,1.14-.67.33.56.91.77,1.54.61.28-.07.66-.37.66-.68v-5.02h1.39Z"/>
  <path class="st1" d="M18.18,22.31v.82c0,.17-1.76,2.41-2.01,2.78-.04.06-.1.1-.09.18h2.18v1.22h-3.95v-.86c0-.17,1.72-2.38,1.96-2.74.04-.06.1-.1.09-.18h-1.97v-1.22h3.78Z"/>
  <polygon class="st1" points="22.38 22.31 22.38 23.13 20.28 26.09 22.46 26.09 22.46 27.31 18.52 27.31 18.52 26.44 20.62 23.52 18.6 23.52 18.6 22.31 22.38 22.31"/>
</svg>